<svg xmlns="http://www.w3.org/2000/svg" width="18.479" height="18.48" viewBox="0 0 18.479 18.48">
  <g id="bx-link-alt" transform="translate(-2.76 -2.76)">
    <path id="Path_21" data-name="Path 21" d="M4.222,19.778a5.006,5.006,0,0,0,7.071,0l2.828-2.829-1.414-1.414L9.879,18.364a3,3,0,1,1-4.243-4.243l2.829-2.828L7.051,9.879,4.222,12.707A5.006,5.006,0,0,0,4.222,19.778Zm15.556-8.485a5,5,0,0,0-7.071-7.071L9.879,7.051l1.414,1.414,2.828-2.829a3,3,0,0,1,4.243,4.243l-2.829,2.828,1.414,1.414,2.829-2.828Z"/>
    <path id="Path_22" data-name="Path 22" d="M8.464,16.95,7.049,15.536,15.536,7.05,16.95,8.465Z"/>
  </g>
</svg>
