<svg xmlns="http://www.w3.org/2000/svg" xmlns:xlink="http://www.w3.org/1999/xlink" width="400" height="148" viewBox="0 0 400 148">
  <defs>
    <filter id="Rectangle_19" x="0" y="0" width="400" height="148" filterUnits="userSpaceOnUse">
      <feOffset dx="-16" dy="19" input="SourceAlpha"/>
      <feGaussianBlur stdDeviation="8" result="blur"/>
      <feFlood flood-opacity="0.161"/>
      <feComposite operator="in" in2="blur"/>
      <feComposite in="SourceGraphic"/>
    </filter>
  </defs>
  <g id="Group_2" data-name="Group 2" transform="translate(-1454 -1143)">
    <g transform="matrix(1, 0, 0, 1, 1454, 1143)" filter="url(#Rectangle_19)">
      <g id="Rectangle_19-2" data-name="Rectangle 19" transform="translate(40 5)" stroke="#707070" stroke-width="1">
        <rect width="352" height="100" rx="42" stroke="none"/>
        <rect x="0.5" y="0.5" width="351" height="99" rx="41.5" fill="none"/>
      </g>
    </g>
    <text id="GitHub" transform="translate(1539 1164)" fill="#fff" font-size="52" font-family="Merriweather-Regular, Merriweather"><tspan x="0" y="51">GitHub</tspan></text>
    <path id="Icon_awesome-github" data-name="Icon awesome-github" d="M21.333,50.636c0,.257-.3.463-.669.463-.424.039-.72-.167-.72-.463,0-.257.3-.463.669-.463C21,50.134,21.333,50.34,21.333,50.636Zm-4-.579c-.09.257.167.553.553.63a.6.6,0,0,0,.8-.257c.077-.257-.167-.553-.553-.669A.66.66,0,0,0,17.334,50.057Zm5.684-.219c-.373.09-.63.334-.592.63.039.257.373.424.759.334s.63-.334.592-.592S23.391,49.8,23.018,49.838ZM31.479.562C13.643.562,0,14.1,0,31.939A32.239,32.239,0,0,0,21.8,62.7c1.646.3,2.225-.72,2.225-1.556,0-.8-.039-5.2-.039-7.9,0,0-9,1.929-10.892-3.832,0,0-1.466-3.742-3.575-4.706,0,0-2.945-2.019.206-1.98a6.788,6.788,0,0,1,4.964,3.318c2.816,4.964,7.535,3.536,9.374,2.688A7.147,7.147,0,0,1,26.117,44.4c-7.188-.8-14.441-1.839-14.441-14.209a9.746,9.746,0,0,1,3.035-7.574,12.149,12.149,0,0,1,.334-8.731c2.688-.836,8.873,3.472,8.873,3.472a30.378,30.378,0,0,1,16.151,0s6.185-4.321,8.873-3.472a12.144,12.144,0,0,1,.334,8.731c2.057,2.276,3.318,4.051,3.318,7.574,0,12.409-7.574,13.4-14.762,14.209,1.183,1.016,2.186,2.945,2.186,5.967,0,4.334-.039,9.7-.039,10.75,0,.836.592,1.852,2.225,1.556C55.063,58.4,63.781,46.2,63.781,31.939,63.781,14.1,49.315.562,31.479.562ZM12.5,44.913c-.167.129-.129.424.09.669.206.206.5.3.669.129.167-.129.129-.424-.09-.669C12.962,44.836,12.666,44.746,12.5,44.913ZM11.11,43.872c-.09.167.039.373.3.5a.383.383,0,0,0,.553-.09c.09-.167-.039-.373-.3-.5C11.406,43.7,11.2,43.743,11.11,43.872Zm4.166,4.578c-.206.167-.129.553.167.8.3.3.669.334.836.129.167-.167.09-.553-.167-.8C15.83,48.282,15.444,48.244,15.277,48.45Zm-1.466-1.89c-.206.129-.206.463,0,.759s.553.424.72.3a.587.587,0,0,0,0-.8C14.351,46.521,14.016,46.392,13.811,46.559Z" transform="translate(1764.563 1165.25)" fill="#fff"/>
  </g>
</svg>
