<svg xmlns="http://www.w3.org/2000/svg" width="47.779" height="47.779" viewBox="0 0 47.779 47.779">
  <path id="Icon_simple-javascript" data-name="Icon simple-javascript" d="M0,0H47.779V47.779H0ZM43.865,36.384c-.348-2.18-1.768-4.011-5.978-5.72-1.465-.687-3.094-1.165-3.577-2.269a2.351,2.351,0,0,1-.092-1.4c.3-1.286,1.822-1.672,3.016-1.314a3.239,3.239,0,0,1,1.943,1.792c2.058-1.346,2.058-1.346,3.494-2.24A8.217,8.217,0,0,0,41.5,23.676c-1.254-1.4-2.924-2.12-5.642-2.058l-1.4.177a6.417,6.417,0,0,0-3.4,2,6.246,6.246,0,0,0,1.133,8.9c2.717,2.031,6.691,2.477,7.2,4.39.478,2.329-1.732,3.076-3.914,2.807a5.242,5.242,0,0,1-3.494-2.66l-3.643,2.092a8.051,8.051,0,0,0,1.613,2.208c3.464,3.5,12.124,3.317,13.679-2a6.738,6.738,0,0,0,.147-3.285l.092.133ZM25.982,21.96H21.506c0,3.858-.018,7.692-.018,11.556,0,2.453.125,4.7-.275,5.4-.657,1.372-2.349,1.2-3.118.956a3.841,3.841,0,0,1-1.652-1.7,1.708,1.708,0,0,0-.253-.39l-3.633,2.24a7.042,7.042,0,0,0,2.636,3.02,8.761,8.761,0,0,0,6.384.806,5.592,5.592,0,0,0,3.605-2.809c1.015-1.851.8-4.121.79-6.661.024-4.089,0-8.18,0-12.3l.008-.111Z"/>
</svg>
