<svg xmlns="http://www.w3.org/2000/svg" width="55.405" height="54.02" viewBox="0 0 55.405 54.02">
  <path id="Icon_simple-adobexd" data-name="Icon simple-adobexd" d="M45.594.45H9.811A9.8,9.8,0,0,0,0,10.261v34.4A9.8,9.8,0,0,0,9.811,54.47H45.594a9.8,9.8,0,0,0,9.811-9.811v-34.4A9.8,9.8,0,0,0,45.594.45Zm7.48,43.308a8.364,8.364,0,0,1-8.357,8.4H10.689a8.394,8.394,0,0,1-8.38-8.38V11.139a8.394,8.394,0,0,1,8.38-8.38h34a8.38,8.38,0,0,1,8.38,8.38ZM21.908,25.729l6.464,12.42c.115.185.046.369-.139.369H24.217a.453.453,0,0,1-.485-.3c-1.477-3.047-2.978-6.095-4.525-9.373h-.046c-1.385,3.093-2.909,6.348-4.386,9.4a.443.443,0,0,1-.416.254H10.55c-.231,0-.254-.185-.139-.323l6.325-12.051L10.619,13.932a.187.187,0,0,1,.139-.323h3.971a.364.364,0,0,1,.416.254c1.454,3.047,2.932,6.187,4.317,9.257h.046c1.339-3.047,2.816-6.21,4.248-9.234.115-.185.185-.3.416-.3h3.717c.185,0,.254.139.139.323Zm7.6,3.763c0-5.379,3.578-9.58,9.257-9.58a10.237,10.237,0,0,1,1.2.046V13.84a.231.231,0,0,1,.231-.231h3.647c.185,0,.231.069.231.185V34.986a16.443,16.443,0,0,0,.115,2.262c0,.139-.046.185-.185.254a13.751,13.751,0,0,1-5.91,1.339C33.081,38.864,29.5,35.771,29.5,29.491Zm10.458-5.91a3.491,3.491,0,0,0-1.339-.231c-2.909,0-4.94,2.239-4.94,5.956,0,4.248,2.078,5.956,4.686,5.956a4.355,4.355,0,0,0,1.593-.254V23.582Z" transform="translate(0 -0.45)"/>
</svg>
