<svg xmlns="http://www.w3.org/2000/svg" width="54.844" height="61.722" viewBox="0 0 54.844 61.722">
  <path id="Icon_simple-cplusplus" data-name="Icon simple-cplusplus" d="M56.157,15.431a4.857,4.857,0,0,0-1.677-1.775L31.807.566a5.273,5.273,0,0,0-4.75,0L4.379,13.656a5.266,5.266,0,0,0-2.374,4.115V43.952a5.259,5.259,0,0,0,2.374,4.112L27.052,61.157a5.273,5.273,0,0,0,4.75,0L54.475,48.064a5.259,5.259,0,0,0,2.374-4.112V17.771a4.8,4.8,0,0,0-.692-2.34ZM29.429,49.144A18.283,18.283,0,1,1,45.261,21.713l-7.911,4.58a9.141,9.141,0,1,0,0,9.138l7.913,4.578a18.35,18.35,0,0,1-15.835,9.135ZM47.711,31.877H45.68v2.032H43.648V31.877H41.616V29.845h2.032V27.814H45.68v2.032h2.032Zm7.618,0H53.3v2.032H51.266V31.877H49.237V29.845h2.029V27.814H53.3v2.032h2.032Z" transform="translate(-2.005 0)"/>
</svg>
