<svg xmlns="http://www.w3.org/2000/svg" width="47.695" height="64.692" viewBox="0 0 47.695 64.692">
  <path id="Icon_awesome-java" data-name="Icon awesome-java" d="M34.927,39.535a20.425,20.425,0,0,1,2.957-1.579s-4.89.884-9.754,1.289a88.86,88.86,0,0,1-15.554.164c-7.594-1.011,4.17-3.8,4.17-3.8a22.378,22.378,0,0,0-10.184,2.4C-.072,41.216,22.987,42.681,34.927,39.535Zm-10.79-4.056c-2.4-5.4-10.5-10.133,0-18.422C37.234,6.722,30.517,0,30.517,0c2.717,10.677-9.552,13.911-13.987,20.545C13.511,25.081,18.009,29.945,24.137,35.479Zm14.48-22.263c.013,0-22.137,5.534-11.561,17.714,3.121,3.588-.821,6.823-.821,6.823s7.922-4.094,4.283-9.211c-3.4-4.776-6-7.151,8.1-15.326Zm-.771,34.178a1.54,1.54,0,0,1-.253.329C53.8,43.465,47.84,32.7,40.095,35.429a2.19,2.19,0,0,0-1.036.8,8.9,8.9,0,0,1,1.39-.379C44.365,35.024,49.988,41.089,37.846,47.394ZM43.8,55.266s1.832,1.5-2.009,2.679c-7.316,2.211-30.425,2.881-36.844.088-2.312-1,2.022-2.4,3.386-2.691a9.166,9.166,0,0,1,2.236-.253c-2.565-1.807-16.59,3.55-7.126,5.079C29.254,64.363,50.5,58.286,43.8,55.266ZM15.557,50.035c-9.944,2.78,6.052,8.516,18.713,3.1a23.488,23.488,0,0,1-3.563-1.744,36.977,36.977,0,0,1-13.393.569C13.081,51.475,15.557,50.035,15.557,50.035ZM38.275,62.316A95.771,95.771,0,0,1,8.8,62.771c0-.013,1.491,1.226,9.148,1.718,11.65.745,29.541-.417,29.958-5.926,0,0-.809,2.085-9.628,3.753ZM32.766,44.6a52.2,52.2,0,0,1-17.285.834c-4.233-.442-1.466-2.489-1.466-2.489-10.967,3.639,6.09,7.758,21.416,3.272A7.628,7.628,0,0,1,32.766,44.6Z" transform="translate(-0.208)"/>
</svg>
